Coordinates
version=1
nRows=26
nColumns=24
inDegrees=yes

Units are S.I. units (second, meters, Newtons, ...)
Angles are in degrees.

endheader
time	pelvis_tilt	pelvis_list	pelvis_rotation	pelvis_tx	pelvis_ty	pelvis_tz	hip_flexion_r	hip_adduction_r	hip_rotation_r	knee_angle_r	ankle_angle_r	subtalar_angle_r	mtp_angle_r	hip_flexion_l	hip_adduction_l	hip_rotation_l	knee_angle_l	ankle_angle_l	subtalar_angle_l	mtp_angle_l	lumbar_extension	lumbar_bending	lumbar_rotation
      1.04983333	     -1.51344118	      3.17847212	     -1.06070820	      0.53770782	      1.01797330	      0.33950363	     10.53379222	      0.97048379	      2.89730304	    -14.82614922	      7.57790621	     -8.04625205	      5.43107186	     16.41504373	      2.79353902	     -5.76831860	    -67.44211370	      1.19250789	    -11.80328698	      9.16193683	      0.87415591	     -2.09329771	      6.12586556
      1.05400000	     -1.47436664	      3.24857798	     -1.39838573	      0.54245699	      1.01848837	      0.34016383	     10.08517954	      0.92183413	      3.03100872	    -14.53302702	      7.67527031	     -7.79973392	      5.52048577	     16.89851658	      2.79107420	     -6.09028931	    -67.13661447	      1.40862966	    -11.66028747	      9.14936757	      0.83836053	     -2.16266447	      6.37576674
      1.05816667	     -1.42615521	      3.33019967	     -1.73241204	      0.54718256	      1.01899163	      0.34080874	      9.63331753	      0.85529437	      3.16414637	    -14.24920897	      7.77319003	     -7.55210243	      5.61854726	     17.36283746	      2.80066304	     -6.40621276	    -66.78991862	      1.60478355	    -11.55006210	      9.13450272	      0.79298994	     -2.24382888	      6.64784010
      1.06233333	     -1.42795800	      3.38023701	     -2.01325889	      0.55192612	      1.01938712	      0.34138586	      9.21161838	      0.81691532	      3.27489776	    -13.92667980	      7.83806258	     -7.36874582	      5.64100064	     17.88351115	      2.78864776	     -6.65832632	    -66.43381622	      1.76684125	    -11.53838159	      9.13248988	      0.82104781	     -2.30385795	      6.69699300
      1.06650000	     -1.35757080	      3.45632201	     -2.36945646	      0.55659201	      1.01984003	      0.34204769	      8.76256928	      0.75184806	      3.43452268	    -13.68765907	      7.95698241	     -7.11116642	      5.74775256	     18.30462667	      2.76975694	     -7.00021422	    -66.02605118	      1.98716591	    -11.35162011	      9.11741502	      0.72891513	     -2.36728955	      7.12890253
      1.07066667	     -1.35837038	      3.50322489	     -2.64104801	      0.56129745	      1.02016756	      0.34259414	      8.35071018	      0.70927497	      3.54799264	    -13.38506547	      8.02575992	     -6.93995714	      5.77072012	     18.80737193	      2.74743137	     -7.24086455	    -65.60622204	      2.13333103	    -11.35524473	      9.11467364	      0.75582352	     -2.42199871	      7.17567758
      1.07483333	     -1.30193820	      3.57614523	     -2.98394914	      0.56593059	      1.02053382	      0.34323258	      7.92212480	      0.64188808	      3.72112840	    -13.15459592	      8.14214632	     -6.71366028	      5.88445710	     19.22714494	      2.72145687	     -7.56396131	    -65.13608807	      2.31692530	    -11.22077236	      9.09669837	      0.67306624	     -2.48768056	      7.60126074
      1.07900000	     -1.30686901	      3.62770700	     -3.28209351	      0.57056344	      1.02077405	      0.34379697	      7.54500498	      0.59338921	      3.88318398	    -12.90004199	      8.19989467	     -6.52852003	      5.93181080	     19.71533765	      2.68502412	     -7.83182458	    -64.65400046	      2.45541994	    -11.20727557	      9.08906308	      0.67709048	     -2.53648252	      7.69986958
      1.08316667	     -1.26451627	      3.66857969	     -3.57108228	      0.57520637	      1.02106010	      0.34433980	      7.11218188	      0.54712821	      4.01157593	    -12.64079646	      8.29800450	     -6.35184378	      6.11260708	     20.13687449	      2.63979342	     -8.08241734	    -64.13790169	      2.60550983	    -11.15588280	      9.05596289	      0.63645891	     -2.56865387	      8.07297512
      1.08733333	     -1.23275476	      3.71696853	     -3.85778954	      0.57982136	      1.02129368	      0.34488192	      6.70089103	      0.49317543	      4.16817246	    -12.40106185	      8.39895433	     -6.20276196	      6.17310526	     20.56115480	      2.59678121	     -8.33607528	    -63.58733785	      2.72708828	    -11.11150198	      9.04591422	      0.60645780	     -2.62704945	      8.16375251
      1.09150000	     -1.20888060	      3.75520242	     -4.12553720	      0.58440741	      1.02148961	      0.34539132	      6.28939073	      0.44635144	      4.33238856	    -12.14211316	      8.48194715	     -6.03966260	      6.21775634	     20.99027883	      2.55162641	     -8.55255016	    -63.01777465	      2.84465369	    -11.08326725	      9.03886257	      0.55769256	     -2.67674509	      8.28040310
      1.09566667	     -1.17199925	      3.79857587	     -4.40790618	      0.58900976	      1.02167223	      0.34589479	      5.87955848	      0.38868816	      4.48286841	    -11.91597833	      8.58580031	     -5.90482924	      6.28506452	     21.38340266	      2.50449966	     -8.78814741	    -62.40220804	      2.95453476	    -11.02871455	      9.02796266	      0.52429448	     -2.70833536	      8.50682220
      1.09983333	     -1.16455758	      3.81708205	     -4.64796493	      0.59357993	      1.02178825	      0.34635231	      5.48145989	      0.35690062	      4.63949222	    -11.65436562	      8.67484219	     -5.76018363	      6.32689420	     21.81312432	      2.44270261	     -8.96470965	    -61.78297319	      3.05028103	    -11.00406548	      9.02152830	      0.49286895	     -2.74397541	      8.62513614
      1.10400000	     -1.12660841	      3.84519237	     -4.91818634	      0.59815542	      1.02191167	      0.34681753	      5.07236324	      0.30933248	      4.79975040	    -11.43357252	      8.77251947	     -5.64815819	      6.38813591	     22.18410482	      2.38218175	     -9.17219016	    -61.11214454	      3.14500614	    -10.94280079	      9.01272998	      0.45166842	     -2.75500878	      8.83080157
      1.10816667	     -1.09273680	      3.87036834	     -5.16184547	      0.60272569	      1.02201443	      0.34725053	      4.65586269	      0.26084677	      4.95743559	    -11.19296709	      8.86948959	     -5.53056399	      6.44729279	     22.55296184	      2.32817194	     -9.34565728	    -60.41742560	      3.22038367	    -10.89475836	      9.00482862	      0.40152365	     -2.78017722	      8.99844088
      1.11233333	     -1.08830083	      3.87297427	     -5.38099604	      0.60726826	      1.02202705	      0.34765238	      4.26276015	      0.23691646	      5.10568754	    -10.93891584	      8.97377249	     -5.40696633	      6.48366107	     22.95416636	      2.25297450	     -9.48559119	    -59.71949879	      3.29027053	    -10.84866417	      9.00077212	      0.36914237	     -2.80003547	      9.09152317
      1.11650000	     -1.06333847	      3.89405490	     -5.62999529	      0.61181675	      1.02205195	      0.34805753	      3.87285948	      0.18786787	      5.27326352	    -10.73207802	      9.07006938	     -5.31416668	      6.53504586	     23.30554738	      2.19116866	     -9.65304098	    -58.96251017	      3.35010209	    -10.76134439	      8.99645415	      0.33217914	     -2.80613500	      9.25733251
      1.12066667	     -1.00569896	      3.89369242	     -5.84377102	      0.61636247	      1.02210825	      0.34842508	      3.42103298	      0.15418649	      5.41962397	    -10.47962539	      9.18535933	     -5.23733962	      6.61386080	     23.61510160	      2.12315452	     -9.77445787	    -58.18916670	      3.41136114	    -10.67907677	      8.99238193	      0.24530103	     -2.81242552	      9.46329902
      1.12483333	     -1.00781345	      3.90116086	     -6.06730213	      0.62089463	      1.02204194	      0.34878044	      3.05539781	      0.11593054	      5.57637635	    -10.26594512	      9.27483530	     -5.12843677	      6.65866052	     23.97865580	      2.05264109	     -9.90450423	    -57.38840577	      3.44833685	    -10.59104898	      8.99176812	      0.22531844	     -2.81432138	      9.53558690
      1.12900000	     -0.99952206	      3.90780484	     -6.27965376	      0.62543400	      1.02196047	      0.34911883	      2.67476468	      0.07377197	      5.72455711	    -10.04929842	      9.39019778	     -5.03092430	      6.70426540	     24.31784558	      1.98690659	    -10.01814639	    -56.55891109	      3.48134573	    -10.48512272	      8.99369665	      0.19404200	     -2.82176948	      9.63884331
      1.13316667	     -0.98567149	      3.89976284	     -6.48456090	      0.62995911	      1.02186274	      0.34944176	      2.28819460	      0.04459386	      5.86534304	     -9.83449580	      9.50128034	     -4.93783975	      6.74827135	     24.63962424	      1.90834194	    -10.11571967	    -55.70782543	      3.51283766	    -10.35833245	      8.99839136	      0.15445767	     -2.81247689	      9.74360331
      1.13733333	     -0.95735160	      3.89713919	     -6.68419077	      0.63449930	      1.02178010	      0.34974618	      1.88205069	      0.00353114	      6.00319064	     -9.61205033	      9.61154914	     -4.84515413	      6.78607440	     24.92842780	      1.84081059	    -10.20628493	    -54.81849782	      3.52844418	    -10.22503201	      9.00489617	      0.09525540	     -2.81338337	      9.83078540
      1.14150000	     -0.94743276	      3.88931376	     -6.87407055	      0.63904186	      1.02162940	      0.35002810	      1.49940330	     -0.03224884	      6.12948874	     -9.40121590	      9.73203360	     -4.75555752	      6.82275888	     25.22678019	      1.76885828	    -10.28363584	    -53.90952176	      3.54306420	    -10.07592861	      9.01454199	      0.05737984	     -2.80567051	      9.91724070
      1.14566667	     -0.94682763	      3.87131537	     -7.05473417	      0.64358987	      1.02143489	      0.35028215	      1.12323302	     -0.05981788	      6.24894531	     -9.18571860	      9.85358959	     -4.66505412	      6.85645732	     25.52490421	      1.68748246	    -10.34924514	    -52.98249400	      3.55424836	     -9.90741657	      9.02678173	      0.02381078	     -2.78294658	      9.99267835
      1.14983333	     -0.93100259	      3.86132941	     -7.23307033	      0.64815535	      1.02126117	      0.35053535	      0.73516154	     -0.09942170	      6.36030441	     -8.98100425	      9.97577870	     -4.57987339	      6.89052187	     25.78525812	      1.61969645	    -10.40835520	    -52.01157826	      3.55322798	     -9.72873958	      9.04278488	     -0.02060371	     -2.77743320	     10.06734395
      1.15400000	     -0.90726089	      3.83236699	     -7.39681857	      0.65272064	      1.02106097	      0.35076010	      0.32801024	     -0.12254171	      6.46283271	     -8.76088406	     10.11062550	     -4.49834593	      6.94470322	     26.02834043	      1.53805164	    -10.44885388	    -51.02970947	      3.56674458	     -9.52956336	      9.07671175	     -0.08634376	     -2.74619972	     10.16693008
